# xmcd
#
# Track frame offsets:
#        150
#        30765
#        64272
#        93275
#        117166
#        149540
#        156391
#
# Disc length: 2476 seconds
#
# Revision: 0
# Processed by: cddbd v1.5.1PL2 Copyright (c) Steve Scherf et al.
# Submitted via: ExactAudioCopy v0.95a5
#
DISCID=5709aa07
DTITLE=DJ PIPPI - FATAL FATAL
DYEAR=2002
DGENRE=House
TTITLE0=Fatal Fatal (Pacha Mix)
TTITLE1=Fatal Fatal (Rawtal Mix)
TTITLE2=Fatal Fatal (Floorfilterz Mix)
TTITLE3=Fatal Fatal (Parady Dub)
TTITLE4=Fatal Fatal (Floorfilterz Dub)
TTITLE5=Fatal Fatal (Floor-filter-Pella)
TTITLE6=Fatal Fatal (Fatal Chill Out Mix)
EXTD=
EXTT0=
EXTT1=
EXTT2=
EXTT3=
EXTT4=
EXTT5=
EXTT6=
PLAYORDER=
